<?xml version="1.0" encoding="utf-8"?>
<!-- Generator: Adobe Illustrator 22.1.0, SVG Export Plug-In . SVG Version: 6.00 Build 0)  -->
<svg version="1.1" id="Layer_1" xmlns="http://www.w3.org/2000/svg" xmlns:xlink="http://www.w3.org/1999/xlink" x="0px" y="0px"
	 viewBox="0 0 98.9 98.8" style="enable-background:new 0 0 98.9 98.8;" xml:space="preserve">
<style type="text/css">
	.st0{fill:#EAEAEA;}
</style>
<g>
	<path class="st0" d="M98,91.9c-5.3,7.6-10,8.1-16.5,1.5C71.7,83.6,61.8,73.9,52.2,64c-2.2-2.2-3.4-2.1-5.5,0
		C36.3,74.6,25.8,85.1,15.3,95.5c-5.4,5.3-12.7,3.9-14.9-2.6c-1.3-4,0.5-7.1,3.2-9.8c10.3-10.2,20.4-20.6,30.8-30.7
		c2.5-2.5,2.5-3.7,0-6.2C24.1,36.2,13.9,25.8,3.7,15.6C1,13-0.7,10.1,0.3,6.3c1.8-6.8,9.5-8.4,15-3c9.2,9,18.2,18.1,27.2,27.2
		c6.9,6.9,6.9,6.9,13.8,0c8.4-8.4,16.7-16.7,25.1-25.1C88-1.2,92.9-0.7,98,6.9c0,1.7,0,3.3,0,5c-0.8,2.6-2.4,4.6-4.3,6.5
		c-8.8,8.6-17.4,17.4-26.1,26.1c-4.4,4.4-5.5,5.5-1.3,9.8c8.2,8.2,13.9,19.2,22.2,27.4c2.6,2.6,8.4,1.7,9.5,5.3
		C98,88.6,98,90.2,98,91.9z"/>
</g>
<path class="st0" d="M52.6,34.5C62.7,24.1,73.1,13.9,83.3,3.7c2.6-2.6,5.5-4.4,9.4-3.4c6.8,1.8,8.4,9.5,3,15
	c-9,9.2-18.1,18.2-27.2,27.2"/>
<path class="st0" d="M64.4,52.5C74.8,62.6,85,72.9,95.3,83.2c2.6,2.6,4.4,5.5,3.4,9.4c-1.8,6.8-9.5,8.4-15,3
	c-9.2-9-18.2-18.1-27.2-27.2"/>
</svg>
