<svg id="Layer_1" data-name="Layer 1" xmlns="http://www.w3.org/2000/svg" viewBox="0 0 131.99 101"><defs><style>.cls-1{fill:#fe3939;}</style></defs><title>hamburger</title><path class="cls-1" d="M1,49c1.91-2.24,3.45-4.88,7.5-6,37.39,0,75.84,0,114.29,0,5.06,0,9.56,4.33,9.17,9-.34,4-3.92,7.34-7.67,8a9.37,9.37,0,0,1-1.5,0H8.36C4.46,58.86,3,56.18,1,54Z" transform="translate(0 0)"/><path class="cls-1" d="M123.48,60H9.19C4.13,60-.37,55.69,0,51,.36,47,4,43.69,7.69,43a8.34,8.34,0,0,1,1.5,0H123.62" transform="translate(0 0)"/><path class="cls-1" d="M1,6c1.91-2.23,3.45-4.88,7.5-6C45.9,0,84.35,0,122.8,0c5.06,0,9.56,4.33,9.17,9-.34,4-3.93,7.34-7.67,8a9.38,9.38,0,0,1-1.5,0H8.37C4.47,15.87,3,13.19,1,11Z" transform="translate(0 0)"/><path class="cls-1" d="M123.49,17C86.1,17,47.65,17,9.2,17,4.14,17-.36,12.69,0,8,.37,4,4,.69,7.7,0A9.38,9.38,0,0,1,9.2,0H123.63" transform="translate(0 0)"/><path class="cls-1" d="M1,90c1.91-2.23,3.45-4.88,7.5-6,37.39,0,75.84,0,114.29,0,5.06,0,9.56,4.33,9.17,9-.34,4-3.93,7.34-7.67,8a9.38,9.38,0,0,1-1.5,0H8.37C4.47,99.83,3,97.16,1,95Z" transform="translate(0 0)"/><path class="cls-1" d="M123.49,101c-37.39,0-75.84,0-114.29,0C4.14,101-.36,96.66,0,92,.37,88,4,84.66,7.7,84a9.38,9.38,0,0,1,1.5,0H123.63" transform="translate(0 0)"/></svg>