<svg id="Layer_1" data-name="Layer 1" xmlns="http://www.w3.org/2000/svg" viewBox="0 0 97.52 150.76"><defs><style>.cls-1{fill:#eaeaea;}</style></defs><title>thick_arrow</title><path class="cls-1" d="M0,23.5v-8C1.31,5.45,6,.81,16-.5h8c6,.41,10.34,3.66,14.43,7.8,16.86,17.06,33.7,34.14,50.91,50.84,7.71,7.47,9.35,16.12,7.45,26-.65,3.37-2.94,6-5.29,8.33C74.38,109.72,57.13,126.87,40,144.08c-6.89,6.9-15.24,7.24-23.67,4.82-8-2.28-12-8.79-13.23-16.7-1.31-8.13,2.53-14.59,7.92-20.14C20,102.73,29.32,93.65,38.5,84.46c1.29-1.3,2.61-2.58,3.88-3.89,3.74-3.86,3.78-4.31.08-8C36.25,66.25,30,60,23.74,53.79c-5.3-5.3-10.49-10.72-15.93-15.86C3.57,33.92.41,29.5,0,23.5Z" transform="translate(0 0.5)"/></svg>